<?xml version="1.0" encoding="UTF-8" standalone="no"?>
<!-- Created with Inkscape (http://www.inkscape.org/) -->

<svg
   xmlns:dc="http://purl.org/dc/elements/1.1/"
   xmlns:cc="http://creativecommons.org/ns#"
   xmlns:rdf="http://www.w3.org/1999/02/22-rdf-syntax-ns#"
   xmlns:svg="http://www.w3.org/2000/svg"
   xmlns="http://www.w3.org/2000/svg"
   xmlns:xlink="http://www.w3.org/1999/xlink"
   xmlns:sodipodi="http://sodipodi.sourceforge.net/DTD/sodipodi-0.dtd"
   xmlns:inkscape="http://www.inkscape.org/namespaces/inkscape"
   width="40mm"
   height="40mm"
   viewBox="0 0 39.999999 40"
   version="1.1"
   id="svg8"
   inkscape:version="0.92.5 (2060ec1f9f, 2020-04-08)"
   sodipodi:docname="icon.svg">
  <defs
     id="defs2">
    <linearGradient
       inkscape:collect="always"
       id="linearGradient1021">
      <stop
         style="stop-color:#fffdf3;stop-opacity:0"
         offset="0"
         id="stop1017" />
      <stop
         style="stop-color:#100e00;stop-opacity:0.38248849"
         offset="1"
         id="stop1019" />
    </linearGradient>
    <linearGradient
       inkscape:collect="always"
       id="linearGradient967">
      <stop
         style="stop-color:#a12020;stop-opacity:1"
         offset="0"
         id="stop963" />
      <stop
         style="stop-color:#cfb100;stop-opacity:1"
         offset="1"
         id="stop965" />
    </linearGradient>
    <linearGradient
       inkscape:collect="always"
       id="linearGradient955">
      <stop
         style="stop-color:#0f174f;stop-opacity:1"
         offset="0"
         id="stop951" />
      <stop
         style="stop-color:#2c9766;stop-opacity:1"
         offset="1"
         id="stop953" />
    </linearGradient>
    <linearGradient
       inkscape:collect="always"
       xlink:href="#linearGradient955"
       id="linearGradient961"
       x1="40.056675"
       y1="195.28282"
       x2="51.200043"
       y2="177.28496"
       gradientUnits="userSpaceOnUse"
       gradientTransform="translate(42.656217,-38.914443)" />
    <linearGradient
       inkscape:collect="always"
       xlink:href="#linearGradient967"
       id="linearGradient969"
       x1="44.229607"
       y1="187.89391"
       x2="50.069107"
       y2="179.57339"
       gradientUnits="userSpaceOnUse"
       gradientTransform="matrix(1.3131764,0.0575314,0.31921246,1.1037423,-31.035737,-60.951933)" />
    <linearGradient
       inkscape:collect="always"
       xlink:href="#linearGradient967"
       id="linearGradient969-3"
       x1="44.229607"
       y1="187.89391"
       x2="50.069107"
       y2="179.57339"
       gradientUnits="userSpaceOnUse"
       gradientTransform="matrix(1.3131764,0.0575314,0.31921246,1.1037423,-75.014872,20.031295)" />
    <linearGradient
       gradientTransform="translate(-1.3229173,42.068785)"
       inkscape:collect="always"
       xlink:href="#linearGradient955"
       id="linearGradient961-2"
       x1="40.056675"
       y1="195.28282"
       x2="51.200043"
       y2="177.28496"
       gradientUnits="userSpaceOnUse" />
    <radialGradient
       inkscape:collect="always"
       xlink:href="#linearGradient1021"
       id="radialGradient1025"
       cx="-12.9"
       cy="175.49165"
       fx="-12.9"
       fy="175.49165"
       r="12.5"
       gradientUnits="userSpaceOnUse"
       gradientTransform="matrix(0.63680717,0.35812844,-0.37929922,0.67445203,119.47896,114.18508)" />
  </defs>
  <sodipodi:namedview
     id="base"
     pagecolor="#ffffff"
     bordercolor="#666666"
     borderopacity="1.0"
     inkscape:pageopacity="0.0"
     inkscape:pageshadow="2"
     inkscape:zoom="1.4142136"
     inkscape:cx="99.096528"
     inkscape:cy="57.917728"
     inkscape:document-units="mm"
     inkscape:current-layer="layer1"
     showgrid="false"
     inkscape:window-width="1440"
     inkscape:window-height="812"
     inkscape:window-x="0"
     inkscape:window-y="31"
     inkscape:window-maximized="1"
     fit-margin-top="0"
     fit-margin-left="0"
     fit-margin-right="0"
     fit-margin-bottom="0" />
  <metadata
     id="metadata5">
    <rdf:RDF>
      <cc:Work
         rdf:about="">
        <dc:format>image/svg+xml</dc:format>
        <dc:type
           rdf:resource="http://purl.org/dc/dcmitype/StillImage" />
        <dc:title></dc:title>
      </cc:Work>
    </rdf:RDF>
  </metadata>
  <g
     inkscape:label="Layer 1"
     inkscape:groupmode="layer"
     id="layer1"
     transform="translate(-24.65741,-202.56406)">
    <g
       id="g1055"
       transform="matrix(1.1363878,0,0,1.1363878,-2.8483331,-36.167771)">
      <path
         inkscape:connector-curvature="0"
         id="path1007"
         d="m 57.200291,227.92593 a 12.5,12.5 0 0 1 -12.5,12.5 12.5,12.5 0 0 1 -12.5,-12.5 12.5,12.5 0 0 1 12.5,-12.5 12.5,12.5 0 0 1 12.5,12.5 z"
         style="opacity:1;fill:url(#radialGradient1025);fill-opacity:1;stroke:none;stroke-width:0.17262152;stroke-linecap:round;stroke-linejoin:round;stroke-miterlimit:4;stroke-dasharray:none;stroke-dashoffset:0;stroke-opacity:1;paint-order:markers fill stroke" />
      <g
         id="g1029">
        <path
           id="path1058-7-2"
           style="opacity:1;fill:url(#linearGradient961-2);fill-opacity:1;stroke:none;stroke-width:1.31473041;stroke-linecap:round;stroke-linejoin:round;stroke-miterlimit:4;stroke-dasharray:none;stroke-dashoffset:0;stroke-opacity:1;paint-order:markers fill stroke"
           d="m 43.415129,212.79437 c -7.813225,0.13336 -15.403759,8.29154 -15.403759,8.29154 l 7.051861,-1.31919 c 0,0 2.599984,3.21594 3.862298,4.75457 0,0 1.740551,-6.23075 5.025532,-6.3593 5.305489,-0.20763 9.613822,4.26722 9.613885,9.5312 -6.3e-5,5.26397 -4.304335,9.53122 -9.613885,9.5312 -5.293127,2e-5 -9.587309,-4.24112 -9.613883,-9.48263 -8.2e-5,-0.0163 0,-0.0486 0,-0.0486 l 5.676656,0.95808 c -1.845183,-3.02508 -3.505967,-5.04132 -5.384887,-8.00824 -3.517193,2.16342 -6.961214,3.22534 -9.971537,5.15515 l 4.293277,0.90641 c 0,0 -1.09e-4,1.03511 0,1.05833 0.03804,8.18101 6.739374,14.80123 15.000118,14.80117 8.284195,6e-5 14.999945,-6.65785 15.000115,-14.87093 1.2e-4,-8.21328 -6.715717,-14.87151 -15.000115,-14.87145 -0.174548,-0.017 -0.35337,-0.0259 -0.535885,-0.0274 z"
           inkscape:connector-curvature="0"
           sodipodi:nodetypes="ccccscccccccccccccc" />
        <path
           inkscape:connector-curvature="0"
           id="path1049-3-5-7"
           style="font-style:normal;font-variant:normal;font-weight:bold;font-stretch:normal;font-size:40px;line-height:1.25;font-family:STIX;-inkscape-font-specification:'STIX Bold';letter-spacing:0px;word-spacing:0px;fill:url(#linearGradient969-3);fill-opacity:1;stroke:none;stroke-width:0.17900002;stroke-miterlimit:4;stroke-dasharray:none;stroke-opacity:1"
           d="m 42.849199,234.40357 c 0,0 -0.801612,1.13124 -1.979226,0.49929 -1.177609,-0.63196 -0.700565,-1.96879 -0.700565,-1.96879 l 6.326253,-12.17621 c 0,0 1.024099,-0.9563 2.01538,-0.40557 0.991282,0.55079 0.664436,1.87515 0.664436,1.87515 z"
           sodipodi:nodetypes="czcczcc" />
      </g>
    </g>
  </g>
</svg>
